<svg width="159" height="374" viewBox="0 0 159 374" fill="none" xmlns="http://www.w3.org/2000/svg">
	<path d="M87.6905 52.7415C87.6905 52.7415 71.4459 16.2861 127.683 0.101051C127.683 0.101051 130.48 51.0855 87.6905 52.7415Z" fill="#5BC3A3"/>
	<path d="M66.708 64.9056C66.708 64.9056 91.7613 40.4231 61.6066 11.4935C61.6066 11.4935 39.7382 40.6498 66.708 64.9056Z" fill="#5BC3A3"/>
	<path d="M84.3817 73.5921C84.3817 73.5921 111.911 95.2531 136.678 61.5968C136.678 61.5968 104.929 43.7011 84.3817 73.5921Z" fill="#5BC3A3"/>
	<path d="M42.0743 212.182C42.0743 212.182 50.8043 170.657 0.957292 161.847C0.957292 161.847 -1.41604 205.931 42.0743 212.182Z" fill="#5BC3A3"/>
	<path d="M65.7192 209.021C65.7192 209.021 108.027 212.282 110.287 161.714C110.287 161.714 66.2674 165.087 65.7192 209.021Z" fill="#5BC3A3"/>
	<path d="M59.0792 274.294C59.0792 274.294 51.4071 232.56 1.94376 243.313C1.94376 243.313 16.4667 285.004 59.0792 274.294Z" fill="#5BC3A3"/>
	<path d="M79.7595 262.403C79.7595 262.403 120.143 249.375 103.056 201.727C103.056 201.727 63.605 221.542 79.7595 262.403Z" fill="#5BC3A3"/>
	<path d="M36.3331 160.722C36.3331 160.722 47.9682 126.202 6.36136 113.655C6.36136 113.655 -0.114744 151 36.3331 160.722Z" fill="#5BC3A3"/>
	<path d="M56.8092 160.416C56.8092 160.416 92.5491 167.469 99.5845 124.585C99.5845 124.585 61.716 123.015 56.8092 160.416Z" fill="#5BC3A3"/>
	<path d="M45.6949 112.678C45.6949 112.678 64.0343 81.2015 25.7976 60.547C25.7976 60.547 11.9463 95.8271 45.6949 112.678Z" fill="#5BC3A3"/>
	<path d="M65.8156 116.494C65.8156 116.494 99.4076 130.589 114.921 89.9942C114.921 89.9942 78.1405 80.8429 65.8156 116.494Z" fill="#5BC3A3"/>
	<path d="M103.81 27.2058C103.753 27.2685 89.6278 42.6914 75.4959 68.9795C61.3671 95.2675 47.2207 132.438 47.2174 175.977C47.2158 205.095 53.5567 237.05 70.4395 270.416C87.3207 303.784 114.731 338.552 156.825 373.362L158.659 371.145C116.816 336.54 89.6841 302.08 73.0071 269.117C56.3301 236.153 50.0969 204.679 50.0953 175.977C50.0937 133.072 64.0536 96.3431 78.0313 70.3429C85.0185 57.3427 92.0073 47.0291 97.2421 39.9727C99.8595 36.4454 102.04 33.7315 103.56 31.9036C104.321 30.9904 104.917 30.2975 105.321 29.836C105.524 29.6045 105.678 29.4309 105.781 29.3167L105.932 29.1495L103.81 27.2058Z" fill="#3D8173"/>
	<path d="M64.761 42.9616C64.761 42.9648 66.4717 66.6724 67.9379 84.0632L68.1662 86.7755L70.2788 85.06L70.3206 85.0247C70.8174 84.6276 75.5216 80.941 82.8159 77.2657C90.1102 73.5872 99.9881 69.9313 110.811 69.5149L110.7 66.6386C98.927 67.0985 88.3996 71.1483 80.7998 75.0632C73.1984 78.9828 68.5183 82.7819 68.4637 82.8253L69.3704 83.9427L70.8045 83.8221C70.073 75.1403 69.2788 64.8717 68.6695 56.7752C68.364 52.7269 68.1051 49.2221 67.9219 46.7285C67.7386 44.2349 67.6308 42.759 67.6308 42.7558L64.761 42.9616Z" fill="#3D8173"/>
	<path d="M25.5724 191.216C25.574 191.219 43.2671 213.933 56.457 230.451L58.1548 232.578L58.9554 229.976L58.9763 229.911C59.2143 229.163 61.4715 222.264 66.3526 213.626C71.2321 204.983 78.7354 194.613 89.4027 186.865L87.7097 184.537C76.2176 192.892 68.3703 204.026 63.3702 213.063C58.3734 222.103 56.2271 229.063 56.2062 229.129L57.5808 229.554L58.7046 228.655C52.1193 220.409 44.4022 210.605 38.333 202.865C35.2992 198.995 32.6754 195.64 30.812 193.253C28.947 190.867 27.8458 189.452 27.8425 189.447L25.5724 191.216Z" fill="#3D8173"/>
	<path d="M35.8588 261.152C35.8604 261.154 60.8462 275.462 79.3158 285.744L81.6936 287.069L81.4477 284.358C81.4477 284.358 81.438 284.253 81.4219 284.028C81.3753 283.35 81.2772 281.659 81.2772 279.207C81.2676 269.977 82.6953 250.009 93.2693 232.92L90.8224 231.407C79.8029 249.268 78.4074 269.697 78.3994 279.207C78.3994 282.578 78.5795 284.58 78.5827 284.617L80.0152 284.487L80.7145 283.229C71.4926 278.096 60.6356 271.951 52.084 267.091C47.8091 264.662 44.1096 262.552 41.4794 261.051C38.8491 259.549 37.2929 258.658 37.288 258.655L35.8588 261.152Z" fill="#3D8173"/>
	<path d="M24.2059 141.286C24.2075 141.289 36.997 162.442 46.5759 177.859L48.0116 180.169L49.1129 177.682L49.137 177.629C49.4103 177.024 52.0277 171.383 57.0503 164.526C62.0712 157.665 69.4973 149.603 79.3383 144.096L77.9315 141.585C67.2546 147.569 59.4201 156.291 54.2335 163.506C49.0486 170.725 46.51 176.452 46.481 176.516L47.7978 177.098L49.0196 176.339C44.2382 168.643 38.6498 159.506 34.2574 152.296C32.0613 148.69 30.1641 145.564 28.8153 143.341C27.468 141.119 26.6705 139.8 26.6689 139.797L24.2059 141.286Z" fill="#3D8173"/>
	<path d="M37.7237 91.2C37.7253 91.2033 46.0003 114.494 52.2833 131.522L53.2255 134.075L54.8059 131.86L54.8396 131.813C55.2287 131.276 58.9265 126.276 65.2256 120.568C71.5231 114.858 80.4187 108.453 91.1648 105.036L90.2934 102.295C78.6293 106.01 69.2031 112.978 62.6725 119.003C56.1419 125.032 52.5036 130.133 52.4618 130.189L53.6338 131.025L54.9827 130.527C51.8477 122.027 48.2094 111.953 45.3572 104.006C43.9312 100.031 42.6996 96.5891 41.8266 94.1406C40.952 91.692 40.4375 90.2402 40.4359 90.237L37.7237 91.2Z" fill="#3D8173"/>
</svg>
