<svg width="344" height="382" viewBox="0 0 344 382" fill="none" xmlns="http://www.w3.org/2000/svg">
<path d="M108.537 71C108.537 71 88.3582 35.6807 158.215 20C158.215 20 161.69 69.3956 108.537 71Z" fill="#5BC3A3"/>
<path d="M82.3465 83C82.3465 83 112.709 59.1648 76.164 31C76.164 31 49.661 59.3855 82.3465 83Z" fill="#5BC3A3"/>
<path d="M103.89 91.1876C103.89 91.1876 138.134 112.697 168.942 79.2765C168.942 79.2765 129.449 61.5065 103.89 91.1876Z" fill="#5BC3A3"/>
<path d="M51.7058 225C51.7058 225 62.4718 185.401 0.999273 177C0.999273 177 -1.92758 219.039 51.7058 225Z" fill="#5BC3A3"/>
<path d="M81.5581 221.959C81.5581 221.959 133.173 225.127 135.93 176C135.93 176 82.2269 179.277 81.5581 221.959Z" fill="#5BC3A3"/>
<path d="M72.8198 285.318C72.8198 285.318 63.3023 245.411 1.94186 255.693C1.94186 255.693 19.9579 295.559 72.8198 285.318Z" fill="#5BC3A3"/>
<path d="M98.4953 274C98.4953 274 153.445 262.191 130.195 219C130.195 219 76.514 236.961 98.4953 274Z" fill="#5BC3A3"/>
<path d="M44.7375 176C44.7375 176 59.2507 142.263 7.35182 130C7.35182 130 -0.726236 166.498 44.7375 176Z" fill="#5BC3A3"/>
<path d="M69.907 175.583C69.907 175.583 114.525 182.389 123.308 141.009C123.308 141.009 76.0327 139.494 69.907 175.583Z" fill="#5BC3A3"/>
<path d="M56.6286 129C56.6286 129 79.6185 98.8102 31.6857 79C31.6857 79 14.322 112.838 56.6286 129Z" fill="#5BC3A3"/>
<path d="M81.5581 132.705C81.5581 132.705 122.738 146.367 141.756 107.021C141.756 107.021 96.6671 98.1509 81.5581 132.705Z" fill="#5BC3A3"/>
<path d="M135.697 107C135.619 107.05 116.226 119.258 96.824 140.066C77.4264 160.874 58.0045 190.297 58 224.76C57.9978 247.808 66.7033 273.102 89.882 299.513C113.058 325.926 150.691 353.446 208.482 381L211 379.245C153.553 351.854 116.303 324.577 93.4071 298.485C70.511 272.392 61.9533 247.479 61.9511 224.76C61.9489 190.798 81.1147 161.726 100.305 141.145C109.898 130.855 119.493 122.691 126.68 117.106C130.273 114.314 133.267 112.165 135.354 110.719C136.398 109.996 137.217 109.447 137.771 109.082C138.05 108.899 138.262 108.761 138.403 108.671L138.61 108.539L135.697 107Z" fill="#3D8173"/>
<path d="M79.6163 61.201C79.6163 61.2042 81.7443 84.3626 83.5682 101.351L83.8522 104L86.4803 102.324L86.5323 102.29C87.1503 101.902 93.0022 98.3007 102.076 94.7105C111.15 91.1172 123.438 87.546 136.901 87.1392L136.763 84.3296C122.118 84.7788 109.022 88.7348 99.5681 92.559C90.1122 96.3878 84.2903 100.099 84.2223 100.141L85.3502 101.233L87.1342 101.115C86.2242 92.6343 85.2363 82.6036 84.4783 74.6946C84.0983 70.7401 83.7762 67.3165 83.5483 64.8807C83.3203 62.4448 83.1862 61.0031 83.1862 61L79.6163 61.201Z" fill="#3D8173"/>
<path d="M31.0698 205.395C31.0718 205.398 53.1406 227.147 69.5925 242.963L71.7102 245L72.7088 242.509L72.7348 242.446C73.0317 241.73 75.8471 235.124 81.9354 226.853C88.0216 218.577 97.3806 208.648 110.686 201.229L108.574 199C94.2401 207 84.4521 217.661 78.2154 226.314C71.9828 234.97 69.3057 241.634 69.2797 241.698L70.9942 242.104L72.3959 241.244C64.182 233.348 54.5564 223.96 46.9862 216.549C43.2021 212.844 39.9294 209.631 37.6052 207.346C35.2789 205.061 33.9054 203.706 33.9013 203.701L31.0698 205.395Z" fill="#3D8173"/>
<path d="M43.6919 272.857C43.6939 272.859 74.9634 286.74 98.078 296.715L101.054 298L100.746 295.37C100.746 295.37 100.734 295.268 100.714 295.05C100.655 294.392 100.533 292.752 100.533 290.373C100.521 281.418 102.307 262.047 115.541 245.468L112.478 244C98.6876 261.328 96.9411 281.147 96.9311 290.373C96.9311 293.643 97.1565 295.585 97.1605 295.621L98.9533 295.495L99.8284 294.275C88.2873 289.295 74.6999 283.333 63.9976 278.619C58.6476 276.262 54.0177 274.215 50.726 272.759C47.4342 271.302 45.4866 270.437 45.4805 270.434L43.6919 272.857Z" fill="#3D8173"/>
<path d="M30.0988 156.438C30.1008 156.441 45.8672 176.875 57.6757 191.768L59.4456 194L60.8032 191.598L60.8329 191.546C61.1699 190.962 64.3965 185.513 70.5881 178.889C76.7777 172.261 85.9323 164.473 98.0639 159.153L96.3297 156.727C83.1676 162.508 73.5096 170.933 67.1157 177.903C60.724 184.877 57.5945 190.409 57.5587 190.471L59.182 191.033L60.6882 190.3C54.7939 182.866 47.9047 174.039 42.4899 167.074C39.7827 163.591 37.4439 160.571 35.7811 158.424C34.1202 156.277 33.1371 155.003 33.1351 155L30.0988 156.438Z" fill="#3D8173"/>
<path d="M46.6047 107.945C46.6066 107.948 56.8299 130.793 64.5922 147.496L65.7562 150L67.7087 147.827L67.7503 147.781C68.231 147.255 72.7994 142.35 80.5816 136.751C88.3618 131.15 99.3518 124.868 112.628 121.516L111.551 118.828C97.1411 122.471 85.4956 129.306 77.4274 135.216C69.3592 141.13 64.8643 146.133 64.8127 146.188L66.2606 147.008L67.9271 146.52C64.054 138.182 59.5591 128.301 56.0354 120.506C54.2737 116.607 52.7521 113.231 51.6735 110.829C50.593 108.427 49.9574 107.003 49.9554 107L46.6047 107.945Z" fill="#3D8173"/>
</svg>
