<svg width="344" height="311" viewBox="0 0 344 311" fill="none" xmlns="http://www.w3.org/2000/svg">
<path d="M108.537 57.8037C108.537 57.8037 88.3582 29.0489 158.215 16.2827C158.215 16.2827 161.69 56.4975 108.537 57.8037Z" fill="#5BC3A3"/>
<path d="M82.3465 67.5733C82.3465 67.5733 112.709 48.1682 76.164 25.2382C76.164 25.2382 49.661 48.3479 82.3465 67.5733Z" fill="#5BC3A3"/>
<path d="M103.89 74.2391C103.89 74.2391 138.134 91.7503 168.942 64.5419C168.942 64.5419 129.449 50.0746 103.89 74.2391Z" fill="#5BC3A3"/>
<path d="M51.7058 183.181C51.7058 183.181 62.4718 150.942 0.999273 144.102C0.999273 144.102 -1.92758 178.328 51.7058 183.181Z" fill="#5BC3A3"/>
<path d="M81.5581 180.705C81.5581 180.705 133.173 183.284 135.93 143.288C135.93 143.288 82.2269 145.956 81.5581 180.705Z" fill="#5BC3A3"/>
<path d="M72.8198 232.288C72.8198 232.288 63.3023 199.798 1.94186 208.169C1.94186 208.169 19.9579 240.625 72.8198 232.288Z" fill="#5BC3A3"/>
<path d="M98.4953 223.073C98.4953 223.073 153.445 213.459 130.195 178.296C130.195 178.296 76.514 192.919 98.4953 223.073Z" fill="#5BC3A3"/>
<path d="M44.7375 143.288C44.7375 143.288 59.2507 115.821 7.35182 105.838C7.35182 105.838 -0.726236 135.552 44.7375 143.288Z" fill="#5BC3A3"/>
<path d="M69.907 142.949C69.907 142.949 114.525 148.489 123.308 114.801C123.308 114.801 76.0327 113.567 69.907 142.949Z" fill="#5BC3A3"/>
<path d="M56.6286 105.024C56.6286 105.024 79.6185 80.445 31.6857 64.3168C31.6857 64.3168 14.322 91.8654 56.6286 105.024Z" fill="#5BC3A3"/>
<path d="M81.5581 108.04C81.5581 108.04 122.738 119.163 141.756 87.1294C141.756 87.1294 96.6671 79.9082 81.5581 108.04Z" fill="#5BC3A3"/>
<path d="M135.697 87.1126C135.619 87.153 116.226 97.0919 96.824 114.033C77.4264 130.974 58.0045 154.927 58 182.985C57.9978 201.75 66.7033 222.342 89.882 243.844C113.058 265.348 150.691 287.753 208.482 310.186L211 308.757C153.553 286.457 116.303 264.25 93.4071 243.007C70.511 221.764 61.9533 201.482 61.9511 182.985C61.9489 155.336 81.1147 131.667 100.305 114.911C109.898 106.534 119.493 99.8873 126.68 95.3399C130.273 93.0668 133.267 91.3179 135.354 90.14C136.398 89.5515 137.217 89.1049 137.771 88.8075C138.05 88.6584 138.262 88.5465 138.403 88.4729L138.61 88.3651L135.697 87.1126Z" fill="#3D8173"/>
<path d="M79.6163 49.826C79.6163 49.8285 81.7443 68.6826 83.5682 82.5131L83.8522 84.6702L86.4803 83.3059L86.5323 83.2778C87.1503 82.962 93.0022 80.0301 102.076 77.1072C111.15 74.1818 123.438 71.2744 136.901 70.9432L136.763 68.6558C122.118 69.0215 109.022 72.2422 99.5681 75.3556C90.1122 78.4728 84.2903 81.4941 84.2223 81.5287L85.3502 82.4173L87.1342 82.3214C86.2242 75.417 85.2363 67.2506 84.4783 60.8116C84.0983 57.5921 83.7762 54.8048 83.5483 52.8217C83.3203 50.8386 83.1862 49.6649 83.1862 49.6623L79.6163 49.826Z" fill="#3D8173"/>
<path d="M31.0698 167.22C31.0718 167.222 53.1406 184.929 69.5925 197.805L71.7102 199.463L72.7088 197.435L72.7348 197.384C73.0317 196.801 75.8471 191.423 81.9354 184.689C88.0216 177.952 97.3806 169.868 110.686 163.828L108.574 162.013C94.2401 168.526 84.4521 177.206 78.2154 184.25C71.9828 191.298 69.3057 196.723 69.2797 196.775L70.9942 197.106L72.3959 196.405C64.182 189.977 54.5564 182.334 46.9862 176.301C43.2021 173.284 39.9294 170.668 37.6052 168.808C35.2789 166.948 33.9054 165.845 33.9013 165.841L31.0698 167.22Z" fill="#3D8173"/>
<path d="M43.6919 222.143C43.6939 222.144 74.9634 233.445 98.078 241.566L101.054 242.613L100.746 240.471C100.746 240.471 100.734 240.388 100.714 240.211C100.655 239.675 100.533 238.34 100.533 236.403C100.521 229.113 102.307 213.342 115.541 199.844L112.478 198.649C98.6876 212.756 96.9411 228.892 96.9311 236.403C96.9311 239.065 97.1565 240.647 97.1605 240.676L98.9533 240.573L99.8284 239.58C88.2873 235.525 74.6999 230.672 63.9976 226.833C58.6476 224.915 54.0177 223.248 50.726 222.063C47.4342 220.877 45.4866 220.173 45.4805 220.17L43.6919 222.143Z" fill="#3D8173"/>
<path d="M30.0988 127.362C30.1008 127.365 45.8672 144.001 57.6757 156.126L59.4456 157.942L60.8032 155.986L60.8329 155.945C61.1699 155.469 64.3965 151.032 70.5881 145.64C76.7777 140.244 85.9323 133.903 98.0639 129.572L96.3297 127.597C83.1676 132.304 73.5096 139.163 67.1157 144.837C60.724 150.515 57.5945 155.019 57.5587 155.069L59.182 155.527L60.6882 154.93C54.7939 148.878 47.9047 141.692 42.4899 136.021C39.7827 133.185 37.4439 130.727 35.7811 128.978C34.1202 127.231 33.1371 126.193 33.1351 126.191L30.0988 127.362Z" fill="#3D8173"/>
<path d="M46.6047 87.8816C46.6066 87.8842 56.8299 106.484 64.5922 120.082L65.7562 122.12L67.7087 120.352L67.7503 120.314C68.231 119.885 72.7994 115.892 80.5816 111.334C88.3618 106.774 99.3518 101.659 112.628 98.9307L111.551 96.7418C97.1411 99.7085 85.4956 105.273 77.4274 110.084C69.3592 114.899 64.8643 118.972 64.8127 119.017L66.2606 119.685L67.9271 119.287C64.054 112.499 59.5591 104.454 56.0354 98.1081C54.2737 94.9338 52.7521 92.1852 51.6735 90.2299C50.593 88.2745 49.9574 87.1151 49.9554 87.1126L46.6047 87.8816Z" fill="#3D8173"/>
</svg>
